<svg xmlns="http://www.w3.org/2000/svg" viewBox="0 0 24 24" fill="currentColor" aria-hidden="true"><path d="M6.5 18c-1.5 0-2.8-.5-3.8-1.4S1.5 14.5 1.5 13c0-1.2.4-2.2 1.1-3 .3-.4.7-.7 1.2-1 .4-.2.5-.6.3-1-.2-.4-.6-.5-1-.3-1.2.6-2.1 1.5-2.7 2.6C.4 11.2 0 12.5 0 14c0 2 1 3.7 2.5 4.8 1.5 1.1 3.3 1.5 5.2 1.2.4 0 .8.3.8.7 0 .4-.3.8-.7.8-2.2.3-4.4-.2-6.2-1.5C1.5 18.3 0 16.3 0 14c0-.9.2-1.8.5-2.6.4-.9 1-1.7 1.8-2.3.2-.2.5-.2.7 0 .2.2.2.5 0 .7-.6.5-1.1 1.1-1.4 1.8-.2.5-.3 1-.3 1.4 0 1.5.8 2.9 2 3.6 1.2.8 2.7 1.1 4.2.9.4 0 .7.2.9.5.2.4.1.8-.2 1.1-.5.4-1 .7-1.6.8zm11.5-4c-.3 0-.5-.2-.5-.5v-2c0-.3.2-.5.5-.5s.5.2.5.5v2c0 .3-.2.5-.5.5zm-3 2.5c-.3 0-.5-.2-.5-.5v-5c0-.3.2-.5.5-.5s.5.2.5.5v5c0 .3-.2.5-.5.5zm6-2.5c-.3 0-.5-.2-.5-.5v-2c0-.3.2-.5.5-.5s.5.2.5.5v2c0 .3-.2.5-.5.5zM18 20c-2.8 0-5.5-1.2-7.4-3.3-.2-.3-.2-.7.1-.9.3-.2.7-.2.9.1 1.6 1.8 4 2.9 6.4 2.9 3.9 0 7-3.1 7-7s-3.1-7-7-7c-2.2 0-4.2 1-5.5 2.6-.2.3-.6.3-.8.1-.3-.2-.3-.6-.1-.8C13.2 4.2 15.5 3 18 3c4.4 0 8 3.6 8 8s-3.6 8-8 8z"/></svg>
