<svg xmlns="http://www.w3.org/2000/svg" viewBox="0 0 24 24" fill="currentColor" aria-hidden="true"><path d="M12.001 4.8c-3.2 0-5.2 1.6-6 4.8 1.2-1.6 2.6-2.2 4.2-2.2.7 0 1.4.1 2 .3L12 8.3v12.5c-1.6-.4-3.2-.8-4.8-1.2V9.5c-1.2 1.4-2.6 2.2-4.2 2.2-.7 0-1.4-.1-2-.3L3.601 20v-7.2c0-3.2 1.6-5.2 4.8-6-1.2 1.6-2.6 2.2-4.2 2.2-.7 0-1.4-.1-2-.3v-3.6c.6.2 1.3.3 2 .3 1.6 0 3-.6 4.2-2.2 1.2 1.6 2.6 2.2 4.2 2.2.7 0 1.4-.1 2-.3v3.6c-.6.2-1.3.3-2 .3-1.6 0-3-.6-4.2-2.2v7.5c1.6.4 3.2.8 4.8 1.2V8.3l-.8-.5c-.6-.2-1.3-.3-2-.3z"/></svg>
