<svg xmlns="http://www.w3.org/2000/svg" viewBox="0 0 24 24" fill="currentColor" aria-hidden="true"><path d="M13.14 10.19c.08-.21.12-.45.12-.72 0-.9-.36-1.35-.96-1.35-.6 0-.96.45-.96 1.35 0 .27.04.51.12.72h1.68zM12 2C6.48 2 2 6.48 2 12s4.48 10 10 10 10-4.48 10-10S17.52 2 12 2zm0 18c-4.41 0-8-3.59-8-8s3.59-8 8-8 8 3.59 8 8-3.59 8-8 8zm.6-14.4h-1.2c-.24 0-.36.12-.36.36v.84c0 .24.12.36.36.36h.24v.6h-.6v1.08h1.8V7.16c0-.24-.12-.36-.36-.36zm2.28 3.24c-.36-.84-.96-1.44-1.8-1.8-.84-.36-1.8-.36-2.64 0-.84.36-1.44.96-1.8 1.8-.36.84-.36 1.8 0 2.64.36.84.96 1.44 1.8 1.8.84.36 1.8.36 2.64 0 .84-.36 1.44-.96 1.8-1.8.36-.84.36-1.8 0-2.64zm-2.52 2.16c-.24.24-.6.36-1.08.36-.48 0-.84-.12-1.08-.36-.24-.24-.36-.6-.36-1.08 0-.48.12-.84.36-1.08.24-.24.6-.36 1.08-.36.48 0 .84.12 1.08.36.24.24.36.6.36 1.08 0 .48-.12.84-.36 1.08z"/></svg>
