<svg xmlns="http://www.w3.org/2000/svg" viewBox="0 0 24 24" fill="currentColor" aria-hidden="true"><path d="M23.546 10.93L13.067.452c-.604-.603-1.582-.603-2.188 0L8.708 2.627l2.76 2.76c.645-.223 1.383-.066 1.896.435.516.515.658 1.258.438 1.9l2.66 2.66c.223-.645.078-1.387-.435-1.9-.518-.515-1.258-.659-1.898-.435l-2.76-2.76V19.1c.18.273.283.627.283 1.016 0 .828-.672 1.5-1.5 1.5-.825 0-1.5-.672-1.5-1.5 0-.39.102-.743.283-1.017V9.283c-.18-.274-.283-.627-.283-1.016 0-.828.675-1.5 1.5-1.5.828 0 1.5.672 1.5 1.5 0 .389-.103.742-.283 1.016v7.204l2.76-2.76c-.645-.224-1.38-.08-1.897.435-.515.517-.658 1.258-.435 1.9l2.66 2.66c.645-.223 1.387-.078 1.9.435.516.515.66 1.258.438 1.9l2.657 2.66c.604.604 1.582.604 2.188 0l10.48-10.477c.602-.606.602-1.585-.002-2.19"/></svg>
