<svg xmlns="http://www.w3.org/2000/svg" viewBox="0 0 24 24" fill="currentColor" aria-hidden="true"><path d="M14.25.18l.9.2.73.26.59.3.45.32.34.34.25.34.16.33.1.3.04.26.02.2-.01.13V8.5l-.05.63-.13.55-.21.46-.26.38-.3.31-.33.25-.35.19-.35.14-.33.1-.3.07-.26.04-.21.02H8.77l-.69.05-.59.14-.5.22-.41.27-.33.32-.27.35-.2.36-.15.36-.1.33-.07.28-.04.21-.02.14H4.35l-.09-.02-.18-.05-.25-.08-.3-.12-.33-.17-.35-.22-.35-.28-.33-.35-.3-.42-.25-.5-.18-.58-.1-.67-.02-.76V5.78l.05-.75.12-.68.18-.6.24-.52.28-.44.32-.37.34-.3.36-.24.36-.18.35-.13.32-.09.28-.06.22-.03.15-.01h2.92l.68-.05.59-.14.5-.21.41-.28.33-.32.27-.35.2-.36.15-.36.1-.33.07-.28.04-.21.02-.14h5.26l.14.01.21.03.28.06.33.1.36.14.36.19.35.25.32.31.28.38.24.46.18.55.11.65.04.76v3.26l-.05.64-.13.55-.21.46-.26.38-.3.31-.33.25-.35.19-.35.14-.33.1-.3.07-.26.04-.21.02h-2.39l-.15-.01-.22-.03-.28-.06-.33-.1-.36-.14-.36-.19-.35-.25-.32-.31-.28-.38-.24-.46-.18-.55-.11-.65-.04-.76V.92l.02-.12.05-.24.09-.35.13-.44.18-.52.23-.58.29-.63.35-.66.41-.68.48-.68.54-.67.61-.64.68-.6.75-.54.82-.47.89-.39zM9.4 2.23l-.23.33-.08.41.08.41.23.34.33.22.41.09.41-.09.33-.22.23-.34.08-.41-.08-.41-.23-.33-.33-.22-.41-.09-.41.09-.33.22zm12.29 4.96l.9.2.73.26.59.3.45.32.34.34.25.34.16.33.1.3.04.26.02.2-.01.13v5.69l-.05.63-.13.55-.21.46-.26.38-.3.31-.33.25-.35.19-.35.14-.33.1-.3.07-.26.04-.21.02h-2.39l-.69.05-.59.14-.5.22-.41.27-.33.32-.27.35-.2.36-.15.36-.1.33-.07.28-.04.21-.02.14h-2.26l-.69.05-.59.14-.5.22-.41.27-.33.32-.27.35-.2.36-.15.36-.1.33-.07.28-.04.21-.02.14H4.35l-.09-.02-.18-.05-.25-.08-.3-.12-.33-.17-.35-.22-.35-.28-.33-.35-.3-.42-.25-.5-.18-.58-.1-.67-.02-.76v-2.58l.05-.75.12-.68.18-.6.24-.52.28-.44.32-.37.34-.3.36-.24.36-.18.35-.13.32-.09.28-.06.22-.03.15-.01h2.92l.68-.05.59-.14.5-.21.41-.28.33-.32.27-.35.2-.36.15-.36.1-.33.07-.28.04-.21.02-.14h2.26l.69-.05.59-.14.5-.21.41-.28.33-.32.27-.35.2-.36.15-.36.1-.33.07-.28.04-.21.02-.14h5.26l.14.01.21.03.28.06.33.1.36.14.36.19.35.25.32.31.28.38.24.46.18.55.11.65.04.76v2.58l-.05.75-.12.68-.18.6-.24.52-.28.44-.32.37-.34.3-.36.24-.36.18-.35.13-.32.09-.28.06-.21.03-.14.01h-2.39l-.15-.01-.22-.03-.28-.06-.33-.1-.36-.14-.36-.19-.35-.25-.32-.31-.28-.38-.24-.46-.18-.55-.11-.65-.04-.76V8.5l.02-.12.05-.24.09-.35.13-.44.18-.52.23-.58.29-.63.35-.66.41-.68.48-.68.54-.67.61-.64.68-.6.75-.54.82-.47.89-.39zm-6.2 1.42l-.23.33-.08.41.08.41.23.34.33.22.41.09.41-.09.33-.22.23-.34.08-.41-.08-.41-.23-.33-.33-.22-.41-.09-.41.09-.33.22z"/></svg>
